<svg width="220" height="51" viewBox="0 0 220 51" fill="none" xmlns="http://www.w3.org/2000/svg">
<g clip-path="url(#clip0_314_2)">
<path d="M53.9658 35.3871V20.709H56.3345V35.3871H53.9658Z" fill="#003841"/>
<path d="M53.9658 35.3871V20.709H56.3345V35.3871H53.9658Z" fill="black" fill-opacity="0.2"/>
<path d="M71.2309 23.8007V35.3871H69.0811V21.9837C69.0811 20.9278 69.6993 20.4902 70.4033 20.4902C70.5979 20.4899 70.7903 20.5314 70.9676 20.6118C71.1448 20.6922 71.3027 20.8097 71.4307 20.9564L83.2074 32.2289V20.709H85.3858V34.0268C85.4105 34.2159 85.3941 34.4081 85.3376 34.5902C85.2811 34.7723 85.1859 34.94 85.0585 35.0819C84.9311 35.2238 84.7745 35.3364 84.5994 35.4121C84.4244 35.4877 84.2351 35.5247 84.0445 35.5203C83.854 35.524 83.6649 35.4859 83.4907 35.4087C83.3165 35.3314 83.1613 35.2169 83.0362 35.0732L71.2309 23.8007Z" fill="#003841"/>
<path d="M71.2309 23.8007V35.3871H69.0811V21.9837C69.0811 20.9278 69.6993 20.4902 70.4033 20.4902C70.5979 20.4899 70.7903 20.5314 70.9676 20.6118C71.1448 20.6922 71.3027 20.8097 71.4307 20.9564L83.2074 32.2289V20.709H85.3858V34.0268C85.4105 34.2159 85.3941 34.4081 85.3376 34.5902C85.2811 34.7723 85.1859 34.94 85.0585 35.0819C84.9311 35.2238 84.7745 35.3364 84.5994 35.4121C84.4244 35.4877 84.2351 35.5247 84.0445 35.5203C83.854 35.524 83.6649 35.4859 83.4907 35.4087C83.3165 35.3314 83.1613 35.2169 83.0362 35.0732L71.2309 23.8007Z" fill="black" fill-opacity="0.2"/>
<path d="M104.497 35.3871V22.7257H96.7061L98.3042 20.709H115.313L113.753 22.7257H106.913V35.3871H104.497Z" fill="#003841"/>
<path d="M104.497 35.3871V22.7257H96.7061L98.3042 20.709H115.313L113.753 22.7257H106.913V35.3871H104.497Z" fill="black" fill-opacity="0.2"/>
<path d="M125.862 35.3871L127.422 33.3894H138.933C141.197 33.3894 142.291 32.5999 142.291 31.0588C142.291 29.1563 140.693 28.8899 137.953 28.8899H132.027C128.317 28.8899 126.585 27.463 126.585 24.8946C126.585 22.3261 128.383 20.709 132.426 20.709H144.288L142.757 22.7257H132.245C130.01 22.7257 128.887 23.5152 128.887 25.0563C128.887 26.9588 130.447 27.1396 133.235 27.1396H139.161C142.728 27.1396 144.574 28.4333 144.574 31.0873C144.574 33.8936 142.795 35.3871 138.762 35.3871H125.862Z" fill="#003841"/>
<path d="M125.862 35.3871L127.422 33.3894H138.933C141.197 33.3894 142.291 32.5999 142.291 31.0588C142.291 29.1563 140.693 28.8899 137.953 28.8899H132.027C128.317 28.8899 126.585 27.463 126.585 24.8946C126.585 22.3261 128.383 20.709 132.426 20.709H144.288L142.757 22.7257H132.245C130.01 22.7257 128.887 23.5152 128.887 25.0563C128.887 26.9588 130.447 27.1396 133.235 27.1396H139.161C142.728 27.1396 144.574 28.4333 144.574 31.0873C144.574 33.8936 142.795 35.3871 138.762 35.3871H125.862Z" fill="black" fill-opacity="0.2"/>
<path d="M171.933 20.709H174.292V28.9755C174.292 33.4084 171.438 35.6344 165.787 35.6344C159.224 35.6344 156.398 33.4179 156.398 28.9755V20.709H158.767V28.9755C158.767 32.2669 160.67 33.6557 165.787 33.6557C170.905 33.6557 171.904 32.2669 171.904 28.9755L171.933 20.709Z" fill="#003841"/>
<path d="M171.933 20.709H174.292V28.9755C174.292 33.4084 171.438 35.6344 165.787 35.6344C159.224 35.6344 156.398 33.4179 156.398 28.9755V20.709H158.767V28.9755C158.767 32.2669 160.67 33.6557 165.787 33.6557C170.905 33.6557 171.904 32.2669 171.904 28.9755L171.933 20.709Z" fill="black" fill-opacity="0.2"/>
<path d="M194.858 35.3871C189.997 35.3871 186.42 32.1623 186.42 27.9006C186.42 23.6389 189.997 20.709 194.858 20.709H204.294L202.763 22.7257H194.858C191.376 22.7257 188.789 24.7709 188.789 28.0147C188.789 31.2586 191.357 33.3894 194.858 33.3894H201.355V28.7567H192.793L194.239 26.9588H203.752V35.3871H194.858Z" fill="#003841"/>
<path d="M194.858 35.3871C189.997 35.3871 186.42 32.1623 186.42 27.9006C186.42 23.6389 189.997 20.709 194.858 20.709H204.294L202.763 22.7257H194.858C191.376 22.7257 188.789 24.7709 188.789 28.0147C188.789 31.2586 191.357 33.3894 194.858 33.3894H201.355V28.7567H192.793L194.239 26.9588H203.752V35.3871H194.858Z" fill="black" fill-opacity="0.2"/>
<path d="M216.519 35.3871V20.709H218.887V35.3871H216.519Z" fill="#003841"/>
<path d="M216.519 35.3871V20.709H218.887V35.3871H216.519Z" fill="black" fill-opacity="0.2"/>
<path d="M149.616 17.9315L148.417 16.9327L149.616 15.9814L150.814 16.9327L149.616 17.9315ZM152.117 17.9315L150.919 16.9327L152.117 15.9814L153.326 16.9327L152.117 17.9315Z" fill="#003841"/>
<path d="M149.616 17.9315L148.417 16.9327L149.616 15.9814L150.814 16.9327L149.616 17.9315ZM152.117 17.9315L150.919 16.9327L152.117 15.9814L153.326 16.9327L152.117 17.9315Z" fill="black" fill-opacity="0.2"/>
<path d="M146.705 14.2596C146.249 13.9157 145.884 13.4654 145.642 12.9481C145.399 12.4308 145.288 11.8621 145.316 11.2916C145.317 10.7778 145.365 10.2652 145.459 9.76004C145.558 9.24226 145.688 8.73086 145.848 8.22852H147.171C147.032 8.69091 146.921 9.16099 146.838 9.63638C146.758 10.0341 146.716 10.4387 146.714 10.8445C146.687 11.2568 146.768 11.6689 146.948 12.0408C147.128 12.4126 147.401 12.7313 147.742 12.9658C148.639 13.4796 149.667 13.7209 150.7 13.6603C151.271 13.6639 151.841 13.6161 152.403 13.5176C152.865 13.435 153.32 13.314 153.763 13.1561C154.103 13.0489 154.424 12.8884 154.714 12.6804C154.8 12.6324 154.874 12.5655 154.93 12.4847C154.986 12.404 155.023 12.3115 155.038 12.2143C155.039 12.1435 155.019 12.0739 154.981 12.0145C154.919 11.9317 154.832 11.8715 154.733 11.8433C154.544 11.7948 154.349 11.7724 154.153 11.7767H152.612V10.2833H156.836L156.645 12.1002C156.468 12.1137 156.29 12.1137 156.113 12.1002C155.943 12.0803 155.777 12.0388 155.618 11.9765L155.951 11.7102C156.068 11.758 156.17 11.8369 156.246 11.9385C156.33 12.0755 156.369 12.2348 156.36 12.3951C156.348 12.8036 156.185 13.1933 155.903 13.489C155.55 13.8877 155.119 14.2112 154.638 14.4403C154.053 14.7346 153.433 14.9551 152.793 15.0967C152.069 15.2592 151.328 15.339 150.586 15.3345C149.209 15.4135 147.845 15.0356 146.705 14.2596V14.2596ZM156.36 11.8053L156.503 10.5782C156.503 10.3784 156.636 10.2833 156.798 10.2833C156.959 10.2833 157.064 10.3784 157.045 10.5782L156.912 11.8053C156.913 11.8452 156.906 11.885 156.891 11.922C156.876 11.9591 156.854 11.9926 156.825 12.0204C156.796 12.0482 156.762 12.0697 156.725 12.0834C156.687 12.0971 156.647 12.1028 156.607 12.1002C156.465 12.1002 156.379 12.005 156.398 11.8053H156.36Z" fill="#003841"/>
<path d="M146.705 14.2596C146.249 13.9157 145.884 13.4654 145.642 12.9481C145.399 12.4308 145.288 11.8621 145.316 11.2916C145.317 10.7778 145.365 10.2652 145.459 9.76004C145.558 9.24226 145.688 8.73086 145.848 8.22852H147.171C147.032 8.69091 146.921 9.16099 146.838 9.63638C146.758 10.0341 146.716 10.4387 146.714 10.8445C146.687 11.2568 146.768 11.6689 146.948 12.0408C147.128 12.4126 147.401 12.7313 147.742 12.9658C148.639 13.4796 149.667 13.7209 150.7 13.6603C151.271 13.6639 151.841 13.6161 152.403 13.5176C152.865 13.435 153.32 13.314 153.763 13.1561C154.103 13.0489 154.424 12.8884 154.714 12.6804C154.8 12.6324 154.874 12.5655 154.93 12.4847C154.986 12.404 155.023 12.3115 155.038 12.2143C155.039 12.1435 155.019 12.0739 154.981 12.0145C154.919 11.9317 154.832 11.8715 154.733 11.8433C154.544 11.7948 154.349 11.7724 154.153 11.7767H152.612V10.2833H156.836L156.645 12.1002C156.468 12.1137 156.29 12.1137 156.113 12.1002C155.943 12.0803 155.777 12.0388 155.618 11.9765L155.951 11.7102C156.068 11.758 156.17 11.8369 156.246 11.9385C156.33 12.0755 156.369 12.2348 156.36 12.3951C156.348 12.8036 156.185 13.1933 155.903 13.489C155.55 13.8877 155.119 14.2112 154.638 14.4403C154.053 14.7346 153.433 14.9551 152.793 15.0967C152.069 15.2592 151.328 15.339 150.586 15.3345C149.209 15.4135 147.845 15.0356 146.705 14.2596V14.2596ZM156.36 11.8053L156.503 10.5782C156.503 10.3784 156.636 10.2833 156.798 10.2833C156.959 10.2833 157.064 10.3784 157.045 10.5782L156.912 11.8053C156.913 11.8452 156.906 11.885 156.891 11.922C156.876 11.9591 156.854 11.9926 156.825 12.0204C156.796 12.0482 156.762 12.0697 156.725 12.0834C156.687 12.0971 156.647 12.1028 156.607 12.1002C156.465 12.1002 156.379 12.005 156.398 11.8053H156.36Z" fill="black" fill-opacity="0.2"/>
<path d="M163.666 15.2205L162.382 13.9268L163.666 12.6616L164.941 13.9363L163.666 15.2205Z" fill="#003841"/>
<path d="M163.666 15.2205L162.382 13.9268L163.666 12.6616L164.941 13.9363L163.666 15.2205Z" fill="black" fill-opacity="0.2"/>
<path d="M157.083 10.5686L156.95 11.7958C156.95 11.9955 156.826 12.0907 156.645 12.0907C156.465 12.0907 156.379 11.9955 156.398 11.7958L156.541 10.5686C156.541 10.3688 156.655 10.2737 156.836 10.2737C157.016 10.2737 157.102 10.3784 157.083 10.5686ZM156.836 10.2737C157.49 10.2746 158.145 10.2397 158.795 10.1691C159.388 10.104 159.976 9.9991 160.555 9.85516C161.152 9.70298 161.74 9.51558 162.315 9.29392L163.59 8.7707L164.37 8.41874C164.577 8.32857 164.79 8.25231 165.007 8.19044V8.52339C164.536 8.40124 164.074 8.2422 163.628 8.04776L162.439 7.50553C162.028 7.31998 161.602 7.17348 161.164 7.06795C160.619 6.93729 160.06 6.87655 159.499 6.88721C159.196 6.8873 158.894 6.91274 158.596 6.9633C158.31 6.9633 158.044 7.05844 157.796 7.12503V5.47932C158.088 5.37863 158.387 5.30228 158.691 5.25103C159.046 5.19148 159.405 5.16284 159.766 5.16541C160.334 5.15909 160.901 5.23272 161.449 5.38419C161.93 5.51654 162.398 5.69165 162.848 5.9074L164.122 6.53524C164.539 6.74456 164.971 6.91953 165.416 7.05843C165.9 7.20368 166.404 7.27425 166.91 7.26771H167.861V9.02756H166.91C166.587 9.02759 166.267 9.07567 165.958 9.17025C165.554 9.28766 165.159 9.43717 164.779 9.61735C164.313 9.84565 163.704 10.1596 162.962 10.5686C162.326 10.9392 161.661 11.2574 160.974 11.5199C160.325 11.7461 159.656 11.9086 158.976 12.005C158.191 12.1058 157.399 12.1535 156.607 12.1477L156.836 10.2737Z" fill="#003841"/>
<path d="M157.083 10.5686L156.95 11.7958C156.95 11.9955 156.826 12.0907 156.645 12.0907C156.465 12.0907 156.379 11.9955 156.398 11.7958L156.541 10.5686C156.541 10.3688 156.655 10.2737 156.836 10.2737C157.016 10.2737 157.102 10.3784 157.083 10.5686ZM156.836 10.2737C157.49 10.2746 158.145 10.2397 158.795 10.1691C159.388 10.104 159.976 9.9991 160.555 9.85516C161.152 9.70298 161.74 9.51558 162.315 9.29392L163.59 8.7707L164.37 8.41874C164.577 8.32857 164.79 8.25231 165.007 8.19044V8.52339C164.536 8.40124 164.074 8.2422 163.628 8.04776L162.439 7.50553C162.028 7.31998 161.602 7.17348 161.164 7.06795C160.619 6.93729 160.06 6.87655 159.499 6.88721C159.196 6.8873 158.894 6.91274 158.596 6.9633C158.31 6.9633 158.044 7.05844 157.796 7.12503V5.47932C158.088 5.37863 158.387 5.30228 158.691 5.25103C159.046 5.19148 159.405 5.16284 159.766 5.16541C160.334 5.15909 160.901 5.23272 161.449 5.38419C161.93 5.51654 162.398 5.69165 162.848 5.9074L164.122 6.53524C164.539 6.74456 164.971 6.91953 165.416 7.05843C165.9 7.20368 166.404 7.27425 166.91 7.26771H167.861V9.02756H166.91C166.587 9.02759 166.267 9.07567 165.958 9.17025C165.554 9.28766 165.159 9.43717 164.779 9.61735C164.313 9.84565 163.704 10.1596 162.962 10.5686C162.326 10.9392 161.661 11.2574 160.974 11.5199C160.325 11.7461 159.656 11.9086 158.976 12.005C158.191 12.1058 157.399 12.1535 156.607 12.1477L156.836 10.2737Z" fill="black" fill-opacity="0.2"/>
<path d="M173.921 6.85863C174.316 7.13168 174.641 7.49325 174.872 7.91452C175.142 8.39895 175.326 8.92695 175.414 9.47462C175.53 10.1019 175.556 10.7426 175.49 11.3772C175.453 12.1541 175.276 12.9179 174.967 13.6317C174.691 14.2454 174.3 14.8008 173.816 15.2678C173.357 15.6849 172.82 16.008 172.237 16.2191C171.655 16.4476 171.035 16.5638 170.41 16.5616C169.993 16.5635 169.576 16.5285 169.164 16.4569C168.842 16.4103 168.523 16.3371 168.213 16.2381V14.5544C168.526 14.6324 168.844 14.6928 169.164 14.7351C169.48 14.7727 169.797 14.7917 170.115 14.7922C170.718 14.8042 171.319 14.7175 171.894 14.5354C172.348 14.3964 172.769 14.1666 173.131 13.86C173.446 13.5948 173.708 13.2719 173.902 12.9087C174.078 12.5818 174.2 12.2284 174.263 11.8623L174.168 11.0061C174.191 10.665 174.165 10.3223 174.092 9.98831C174.026 9.65451 173.907 9.33337 173.74 9.03704C173.596 8.78181 173.398 8.56105 173.16 8.39015C172.932 8.22671 172.659 8.14007 172.379 8.14284C172.07 8.13543 171.767 8.23635 171.523 8.42821C171.289 8.61225 171.103 8.8506 170.981 9.12265C170.862 9.36907 170.797 9.63838 170.791 9.91219C170.792 10.0631 170.828 10.2117 170.898 10.3457C170.967 10.4797 171.067 10.5952 171.19 10.6827C171.531 10.8961 171.931 10.996 172.332 10.9681H176.841L176.641 12.785H172.275C171.55 12.8133 170.84 12.569 170.287 12.1001C170.019 11.8404 169.811 11.5254 169.678 11.177C169.545 10.8287 169.49 10.4554 169.516 10.0834C169.508 9.46537 169.642 8.85371 169.906 8.29502C170.148 7.75771 170.525 7.2923 171 6.94424C171.469 6.6013 172.037 6.4209 172.617 6.43054C173.085 6.43565 173.541 6.58516 173.921 6.85863V6.85863ZM176.403 12.5662L176.546 11.3296C176.546 11.2904 176.554 11.2517 176.569 11.2158C176.585 11.1799 176.608 11.1475 176.636 11.1208C176.665 11.094 176.699 11.0734 176.735 11.0602C176.772 11.047 176.811 11.0416 176.85 11.0442C177.031 11.0442 177.107 11.1393 177.098 11.3296L176.955 12.5662C176.956 12.6062 176.95 12.6459 176.935 12.683C176.92 12.7201 176.897 12.7536 176.868 12.7814C176.84 12.8092 176.806 12.8306 176.768 12.8444C176.731 12.8581 176.691 12.8638 176.651 12.8611C176.47 12.8326 176.384 12.7375 176.403 12.5377V12.5662Z" fill="#003841"/>
<path d="M173.921 6.85863C174.316 7.13168 174.641 7.49325 174.872 7.91452C175.142 8.39895 175.326 8.92695 175.414 9.47462C175.53 10.1019 175.556 10.7426 175.49 11.3772C175.453 12.1541 175.276 12.9179 174.967 13.6317C174.691 14.2454 174.3 14.8008 173.816 15.2678C173.357 15.6849 172.82 16.008 172.237 16.2191C171.655 16.4476 171.035 16.5638 170.41 16.5616C169.993 16.5635 169.576 16.5285 169.164 16.4569C168.842 16.4103 168.523 16.3371 168.213 16.2381V14.5544C168.526 14.6324 168.844 14.6928 169.164 14.7351C169.48 14.7727 169.797 14.7917 170.115 14.7922C170.718 14.8042 171.319 14.7175 171.894 14.5354C172.348 14.3964 172.769 14.1666 173.131 13.86C173.446 13.5948 173.708 13.2719 173.902 12.9087C174.078 12.5818 174.2 12.2284 174.263 11.8623L174.168 11.0061C174.191 10.665 174.165 10.3223 174.092 9.98831C174.026 9.65451 173.907 9.33337 173.74 9.03704C173.596 8.78181 173.398 8.56105 173.16 8.39015C172.932 8.22671 172.659 8.14007 172.379 8.14284C172.07 8.13543 171.767 8.23635 171.523 8.42821C171.289 8.61225 171.103 8.8506 170.981 9.12265C170.862 9.36907 170.797 9.63838 170.791 9.91219C170.792 10.0631 170.828 10.2117 170.898 10.3457C170.967 10.4797 171.067 10.5952 171.19 10.6827C171.531 10.8961 171.931 10.996 172.332 10.9681H176.841L176.641 12.785H172.275C171.55 12.8133 170.84 12.569 170.287 12.1001C170.019 11.8404 169.811 11.5254 169.678 11.177C169.545 10.8287 169.49 10.4554 169.516 10.0834C169.508 9.46537 169.642 8.85371 169.906 8.29502C170.148 7.75771 170.525 7.2923 171 6.94424C171.469 6.6013 172.037 6.4209 172.617 6.43054C173.085 6.43565 173.541 6.58516 173.921 6.85863V6.85863ZM176.403 12.5662L176.546 11.3296C176.546 11.2904 176.554 11.2517 176.569 11.2158C176.585 11.1799 176.608 11.1475 176.636 11.1208C176.665 11.094 176.699 11.0734 176.735 11.0602C176.772 11.047 176.811 11.0416 176.85 11.0442C177.031 11.0442 177.107 11.1393 177.098 11.3296L176.955 12.5662C176.956 12.6062 176.95 12.6459 176.935 12.683C176.92 12.7201 176.897 12.7536 176.868 12.7814C176.84 12.8092 176.806 12.8306 176.768 12.8444C176.731 12.8581 176.691 12.8638 176.651 12.8611C176.47 12.8326 176.384 12.7375 176.403 12.5377V12.5662Z" fill="black" fill-opacity="0.2"/>
<path d="M177.145 11.3013L177.003 12.5379C177.003 12.7377 176.879 12.8328 176.698 12.8328C176.517 12.8328 176.432 12.7377 176.451 12.5379L176.593 11.3013C176.592 11.2617 176.599 11.2223 176.614 11.1857C176.629 11.149 176.652 11.1161 176.68 11.089C176.709 11.0619 176.744 11.0414 176.781 11.0288C176.819 11.0162 176.859 11.0118 176.898 11.0159C177.031 11.0159 177.145 11.111 177.145 11.3013ZM188.741 9.56045C188.726 9.86296 188.778 10.1651 188.893 10.4451C188.954 10.555 189.037 10.6508 189.137 10.7263C189.237 10.8017 189.352 10.855 189.474 10.8827C189.875 10.9842 190.288 11.0291 190.701 11.0159L190.511 12.8328C189.89 12.8659 189.272 12.7416 188.713 12.4713C188.499 12.3479 188.317 12.1761 188.181 11.9696C188.046 11.7631 187.961 11.5276 187.933 11.2822H188.189C188.157 11.5202 188.073 11.7485 187.945 11.9519C187.818 12.1553 187.648 12.3291 187.448 12.4618C186.989 12.7183 186.469 12.8434 185.944 12.8233C185.391 12.8587 184.841 12.7153 184.375 12.4143C183.988 12.1058 183.723 11.6715 183.623 11.1871H184.051C183.957 11.6729 183.677 12.1028 183.271 12.3857C182.751 12.6543 182.173 12.7945 181.588 12.7945C181.002 12.7945 180.425 12.6543 179.904 12.3857C179.524 12.1093 179.265 11.6971 179.181 11.2347H179.495C179.393 11.7069 179.109 12.1202 178.705 12.3857C178.083 12.6932 177.39 12.828 176.698 12.7757L176.898 10.9588C177.306 10.9735 177.713 10.9254 178.106 10.8161C178.231 10.786 178.348 10.7308 178.451 10.6539C178.554 10.5771 178.641 10.4802 178.705 10.369C178.825 10.1 178.88 9.80695 178.867 9.5129V8.12402H180.275V9.50338C180.235 9.90956 180.355 10.3152 180.608 10.6354C180.93 10.8466 181.307 10.959 181.692 10.959C182.078 10.959 182.454 10.8466 182.777 10.6354C183.022 10.3117 183.138 9.90786 183.1 9.50338V8.12402H184.508V9.50338C184.471 9.90499 184.579 10.3067 184.812 10.6354C185.14 10.8467 185.521 10.9591 185.911 10.9591C186.301 10.9591 186.682 10.8467 187.01 10.6354C187.255 10.3117 187.371 9.90786 187.333 9.50338V8.12402H188.741V9.56045ZM190.263 12.5379L190.406 11.3013C190.406 11.111 190.539 11.0159 190.701 11.0159C190.863 11.0159 190.967 11.111 190.948 11.3013L190.815 12.5379C190.816 12.5779 190.809 12.6176 190.794 12.6547C190.78 12.6917 190.757 12.7252 190.728 12.753C190.7 12.7808 190.665 12.8023 190.628 12.816C190.59 12.8298 190.55 12.8355 190.511 12.8328C190.282 12.8328 190.197 12.7377 190.216 12.5379H190.263Z" fill="#003841"/>
<path d="M177.145 11.3013L177.003 12.5379C177.003 12.7377 176.879 12.8328 176.698 12.8328C176.517 12.8328 176.432 12.7377 176.451 12.5379L176.593 11.3013C176.592 11.2617 176.599 11.2223 176.614 11.1857C176.629 11.149 176.652 11.1161 176.68 11.089C176.709 11.0619 176.744 11.0414 176.781 11.0288C176.819 11.0162 176.859 11.0118 176.898 11.0159C177.031 11.0159 177.145 11.111 177.145 11.3013ZM188.741 9.56045C188.726 9.86296 188.778 10.1651 188.893 10.4451C188.954 10.555 189.037 10.6508 189.137 10.7263C189.237 10.8017 189.352 10.855 189.474 10.8827C189.875 10.9842 190.288 11.0291 190.701 11.0159L190.511 12.8328C189.89 12.8659 189.272 12.7416 188.713 12.4713C188.499 12.3479 188.317 12.1761 188.181 11.9696C188.046 11.7631 187.961 11.5276 187.933 11.2822H188.189C188.157 11.5202 188.073 11.7485 187.945 11.9519C187.818 12.1553 187.648 12.3291 187.448 12.4618C186.989 12.7183 186.469 12.8434 185.944 12.8233C185.391 12.8587 184.841 12.7153 184.375 12.4143C183.988 12.1058 183.723 11.6715 183.623 11.1871H184.051C183.957 11.6729 183.677 12.1028 183.271 12.3857C182.751 12.6543 182.173 12.7945 181.588 12.7945C181.002 12.7945 180.425 12.6543 179.904 12.3857C179.524 12.1093 179.265 11.6971 179.181 11.2347H179.495C179.393 11.7069 179.109 12.1202 178.705 12.3857C178.083 12.6932 177.39 12.828 176.698 12.7757L176.898 10.9588C177.306 10.9735 177.713 10.9254 178.106 10.8161C178.231 10.786 178.348 10.7308 178.451 10.6539C178.554 10.5771 178.641 10.4802 178.705 10.369C178.825 10.1 178.88 9.80695 178.867 9.5129V8.12402H180.275V9.50338C180.235 9.90956 180.355 10.3152 180.608 10.6354C180.93 10.8466 181.307 10.959 181.692 10.959C182.078 10.959 182.454 10.8466 182.777 10.6354C183.022 10.3117 183.138 9.90786 183.1 9.50338V8.12402H184.508V9.50338C184.471 9.90499 184.579 10.3067 184.812 10.6354C185.14 10.8467 185.521 10.9591 185.911 10.9591C186.301 10.9591 186.682 10.8467 187.01 10.6354C187.255 10.3117 187.371 9.90786 187.333 9.50338V8.12402H188.741V9.56045ZM190.263 12.5379L190.406 11.3013C190.406 11.111 190.539 11.0159 190.701 11.0159C190.863 11.0159 190.967 11.111 190.948 11.3013L190.815 12.5379C190.816 12.5779 190.809 12.6176 190.794 12.6547C190.78 12.6917 190.757 12.7252 190.728 12.753C190.7 12.7808 190.665 12.8023 190.628 12.816C190.59 12.8298 190.55 12.8355 190.511 12.8328C190.282 12.8328 190.197 12.7377 190.216 12.5379H190.263Z" fill="black" fill-opacity="0.2"/>
<path d="M190.215 12.5376L190.358 11.301C190.358 11.1107 190.491 11.0156 190.653 11.0156C190.815 11.0156 190.919 11.1107 190.9 11.301L190.767 12.5376C190.769 12.5776 190.762 12.6174 190.747 12.6544C190.732 12.6915 190.709 12.725 190.681 12.7528C190.652 12.7806 190.618 12.802 190.58 12.8158C190.543 12.8295 190.503 12.8352 190.463 12.8325C190.282 12.8325 190.196 12.7374 190.215 12.5376ZM194.021 9.2748C194.002 9.63971 194.077 10.0033 194.239 10.3307C194.385 10.5833 194.619 10.773 194.896 10.8634C195.252 10.9759 195.625 11.0274 195.999 11.0156L195.799 12.8325C195.357 12.8379 194.917 12.7704 194.496 12.6328C194.121 12.5033 193.791 12.2689 193.545 11.9574C193.261 11.5896 193.081 11.1529 193.022 10.6922H193.421C193.368 11.1492 193.205 11.5865 192.946 11.9669C192.704 12.279 192.372 12.5084 191.994 12.6233C191.507 12.7671 191 12.8345 190.491 12.823L190.682 11.0061C191.059 11.0193 191.435 10.9678 191.795 10.8539C191.932 10.812 192.06 10.7433 192.171 10.6519C192.282 10.5605 192.374 10.4481 192.441 10.3212C192.6 9.99278 192.672 9.62933 192.651 9.26528V7.08687H194.068L194.021 9.2748ZM192.118 5.35555L190.976 4.21404L192.118 3.06299L193.26 4.21404L192.118 5.35555ZM194.468 5.35555L193.336 4.21404L194.468 3.06299L195.628 4.21404L194.468 5.35555ZM195.533 12.5376L195.676 11.301C195.676 11.2618 195.684 11.2231 195.699 11.1872C195.715 11.1513 195.737 11.1189 195.766 11.0922C195.795 11.0654 195.828 11.0448 195.865 11.0316C195.902 11.0184 195.941 11.013 195.98 11.0156C196.161 11.0156 196.247 11.1107 196.228 11.301L196.085 12.5376C196.085 12.7374 195.971 12.8325 195.78 12.8325C195.59 12.8325 195.562 12.7374 195.571 12.5376H195.533Z" fill="#003841"/>
<path d="M190.215 12.5376L190.358 11.301C190.358 11.1107 190.491 11.0156 190.653 11.0156C190.815 11.0156 190.919 11.1107 190.9 11.301L190.767 12.5376C190.769 12.5776 190.762 12.6174 190.747 12.6544C190.732 12.6915 190.709 12.725 190.681 12.7528C190.652 12.7806 190.618 12.802 190.58 12.8158C190.543 12.8295 190.503 12.8352 190.463 12.8325C190.282 12.8325 190.196 12.7374 190.215 12.5376ZM194.021 9.2748C194.002 9.63971 194.077 10.0033 194.239 10.3307C194.385 10.5833 194.619 10.773 194.896 10.8634C195.252 10.9759 195.625 11.0274 195.999 11.0156L195.799 12.8325C195.357 12.8379 194.917 12.7704 194.496 12.6328C194.121 12.5033 193.791 12.2689 193.545 11.9574C193.261 11.5896 193.081 11.1529 193.022 10.6922H193.421C193.368 11.1492 193.205 11.5865 192.946 11.9669C192.704 12.279 192.372 12.5084 191.994 12.6233C191.507 12.7671 191 12.8345 190.491 12.823L190.682 11.0061C191.059 11.0193 191.435 10.9678 191.795 10.8539C191.932 10.812 192.06 10.7433 192.171 10.6519C192.282 10.5605 192.374 10.4481 192.441 10.3212C192.6 9.99278 192.672 9.62933 192.651 9.26528V7.08687H194.068L194.021 9.2748ZM192.118 5.35555L190.976 4.21404L192.118 3.06299L193.26 4.21404L192.118 5.35555ZM194.468 5.35555L193.336 4.21404L194.468 3.06299L195.628 4.21404L194.468 5.35555ZM195.533 12.5376L195.676 11.301C195.676 11.2618 195.684 11.2231 195.699 11.1872C195.715 11.1513 195.737 11.1189 195.766 11.0922C195.795 11.0654 195.828 11.0448 195.865 11.0316C195.902 11.0184 195.941 11.013 195.98 11.0156C196.161 11.0156 196.247 11.1107 196.228 11.301L196.085 12.5376C196.085 12.7374 195.971 12.8325 195.78 12.8325C195.59 12.8325 195.562 12.7374 195.571 12.5376H195.533Z" fill="black" fill-opacity="0.2"/>
<path d="M195.571 12.5379L195.714 11.3012C195.714 11.2621 195.722 11.2234 195.737 11.1875C195.753 11.1515 195.776 11.1192 195.804 11.0924C195.833 11.0656 195.866 11.045 195.903 11.0318C195.94 11.0187 195.979 11.0132 196.018 11.0159C196.199 11.0159 196.285 11.111 196.266 11.3012L196.123 12.5379C196.123 12.7377 196.009 12.8328 195.819 12.8328C195.628 12.8328 195.562 12.7377 195.571 12.5379ZM199.376 9.27504C199.353 9.64028 199.429 10.005 199.595 10.3309C199.735 10.5879 199.971 10.7793 200.251 10.8636C200.605 10.9762 200.975 11.0277 201.345 11.0159L201.155 12.8328C200.71 12.839 200.266 12.7715 199.842 12.633C199.468 12.5012 199.139 12.2672 198.891 11.9576C198.607 11.5898 198.427 11.1531 198.368 10.6924H198.767C198.718 11.1505 198.555 11.5888 198.292 11.9671C198.05 12.2793 197.718 12.5086 197.341 12.6235C196.853 12.7681 196.346 12.8355 195.838 12.8233L196.037 11.0063C196.414 11.0181 196.79 10.9666 197.15 10.8541C197.424 10.7663 197.653 10.5752 197.788 10.3214C197.946 9.99302 198.018 9.62957 197.997 9.26552V7.08711H199.424L199.376 9.27504ZM198.672 5.35579L197.388 4.06208L198.672 2.79688L199.947 4.0716L198.672 5.35579ZM200.908 12.5379L201.051 11.3012C201.051 11.111 201.174 11.0159 201.345 11.0159C201.517 11.0159 201.612 11.111 201.593 11.3012L201.45 12.5379C201.45 12.7377 201.336 12.8328 201.155 12.8328C200.974 12.8328 200.927 12.7377 200.927 12.5379H200.908Z" fill="#003841"/>
<path d="M195.571 12.5379L195.714 11.3012C195.714 11.2621 195.722 11.2234 195.737 11.1875C195.753 11.1515 195.776 11.1192 195.804 11.0924C195.833 11.0656 195.866 11.045 195.903 11.0318C195.94 11.0187 195.979 11.0132 196.018 11.0159C196.199 11.0159 196.285 11.111 196.266 11.3012L196.123 12.5379C196.123 12.7377 196.009 12.8328 195.819 12.8328C195.628 12.8328 195.562 12.7377 195.571 12.5379ZM199.376 9.27504C199.353 9.64028 199.429 10.005 199.595 10.3309C199.735 10.5879 199.971 10.7793 200.251 10.8636C200.605 10.9762 200.975 11.0277 201.345 11.0159L201.155 12.8328C200.71 12.839 200.266 12.7715 199.842 12.633C199.468 12.5012 199.139 12.2672 198.891 11.9576C198.607 11.5898 198.427 11.1531 198.368 10.6924H198.767C198.718 11.1505 198.555 11.5888 198.292 11.9671C198.05 12.2793 197.718 12.5086 197.341 12.6235C196.853 12.7681 196.346 12.8355 195.838 12.8233L196.037 11.0063C196.414 11.0181 196.79 10.9666 197.15 10.8541C197.424 10.7663 197.653 10.5752 197.788 10.3214C197.946 9.99302 198.018 9.62957 197.997 9.26552V7.08711H199.424L199.376 9.27504ZM198.672 5.35579L197.388 4.06208L198.672 2.79688L199.947 4.0716L198.672 5.35579ZM200.908 12.5379L201.051 11.3012C201.051 11.111 201.174 11.0159 201.345 11.0159C201.517 11.0159 201.612 11.111 201.593 11.3012L201.45 12.5379C201.45 12.7377 201.336 12.8328 201.155 12.8328C200.974 12.8328 200.927 12.7377 200.927 12.5379H200.908Z" fill="black" fill-opacity="0.2"/>
<path d="M202.878 16.2764L201.727 15.1254L202.878 13.9839L204.019 15.1254L202.878 16.2764ZM205.227 16.2764L204.095 15.1254L205.227 13.9839L206.378 15.1254L205.227 16.2764Z" fill="#003841"/>
<path d="M202.878 16.2764L201.727 15.1254L202.878 13.9839L204.019 15.1254L202.878 16.2764ZM205.227 16.2764L204.095 15.1254L205.227 13.9839L206.378 15.1254L205.227 16.2764Z" fill="black" fill-opacity="0.2"/>
<path d="M200.927 12.5377L201.069 11.301C201.069 11.1108 201.193 11.0157 201.364 11.0157C201.536 11.0157 201.631 11.1108 201.612 11.301L201.469 12.5377C201.469 12.7375 201.355 12.8326 201.174 12.8326C200.993 12.8326 200.927 12.7375 200.927 12.5377ZM204.732 9.27485C204.713 9.63976 204.788 10.0034 204.951 10.3307C205.093 10.5858 205.328 10.7764 205.607 10.8635C205.961 10.9753 206.33 11.0267 206.701 11.0157L206.511 12.8326C206.065 12.8379 205.622 12.7705 205.198 12.6328C204.822 12.5048 204.491 12.2701 204.247 11.9574C203.959 11.5918 203.778 11.154 203.723 10.6922H204.113C204.068 11.1512 203.904 11.5906 203.638 11.9669C203.4 12.2829 203.066 12.5133 202.687 12.6233C202.199 12.7672 201.692 12.8346 201.184 12.8231L201.374 11.0061C201.751 11.0194 202.127 10.9679 202.487 10.8539C202.763 10.7665 202.995 10.5756 203.134 10.3212C203.288 9.99131 203.359 9.62903 203.343 9.26533V7.08691H204.732V9.27485ZM206.263 12.5377L206.406 11.301C206.406 11.1108 206.539 11.0157 206.701 11.0157C206.863 11.0157 206.967 11.1108 206.948 11.301L206.815 12.5377C206.817 12.5776 206.81 12.6174 206.795 12.6545C206.78 12.6915 206.757 12.725 206.728 12.7528C206.7 12.7806 206.666 12.8021 206.628 12.8158C206.591 12.8295 206.551 12.8353 206.511 12.8326C206.358 12.8326 206.273 12.7375 206.292 12.5377H206.263Z" fill="#003841"/>
<path d="M200.927 12.5377L201.069 11.301C201.069 11.1108 201.193 11.0157 201.364 11.0157C201.536 11.0157 201.631 11.1108 201.612 11.301L201.469 12.5377C201.469 12.7375 201.355 12.8326 201.174 12.8326C200.993 12.8326 200.927 12.7375 200.927 12.5377ZM204.732 9.27485C204.713 9.63976 204.788 10.0034 204.951 10.3307C205.093 10.5858 205.328 10.7764 205.607 10.8635C205.961 10.9753 206.33 11.0267 206.701 11.0157L206.511 12.8326C206.065 12.8379 205.622 12.7705 205.198 12.6328C204.822 12.5048 204.491 12.2701 204.247 11.9574C203.959 11.5918 203.778 11.154 203.723 10.6922H204.113C204.068 11.1512 203.904 11.5906 203.638 11.9669C203.4 12.2829 203.066 12.5133 202.687 12.6233C202.199 12.7672 201.692 12.8346 201.184 12.8231L201.374 11.0061C201.751 11.0194 202.127 10.9679 202.487 10.8539C202.763 10.7665 202.995 10.5756 203.134 10.3212C203.288 9.99131 203.359 9.62903 203.343 9.26533V7.08691H204.732V9.27485ZM206.263 12.5377L206.406 11.301C206.406 11.1108 206.539 11.0157 206.701 11.0157C206.863 11.0157 206.967 11.1108 206.948 11.301L206.815 12.5377C206.817 12.5776 206.81 12.6174 206.795 12.6545C206.78 12.6915 206.757 12.725 206.728 12.7528C206.7 12.7806 206.666 12.8021 206.628 12.8158C206.591 12.8295 206.551 12.8353 206.511 12.8326C206.358 12.8326 206.273 12.7375 206.292 12.5377H206.263Z" fill="black" fill-opacity="0.2"/>
<path d="M206.978 11.3011L206.844 12.5377C206.844 12.7375 206.721 12.8326 206.54 12.8326C206.359 12.8326 206.274 12.7375 206.293 12.5377L206.435 11.3011C206.435 11.1108 206.549 11.0157 206.73 11.0157C206.911 11.0157 206.997 11.1108 206.978 11.3011ZM206.73 11.0157H215.425C215.964 11.0526 216.502 10.9442 216.985 10.7018C217.135 10.6196 217.26 10.4985 217.347 10.3512C217.434 10.2038 217.48 10.0358 217.48 9.86466C217.473 9.5997 217.39 9.34224 217.242 9.12267C217.025 8.80099 216.769 8.50707 216.481 8.24749C216.129 7.92406 215.672 7.53402 215.101 7.07742C214.531 6.62081 213.836 6.05956 212.999 5.41269C212.999 5.12731 212.999 4.83244 212.999 4.53754V3.64335L219.991 0L217.965 2.66354L213.817 4.78488L214.198 4.39486C215.054 5.02904 215.777 5.6093 216.367 6.13567C216.88 6.54806 217.363 6.99628 217.812 7.47696C218.149 7.82199 218.425 8.22063 218.631 8.65653C218.795 9.04148 218.879 9.45572 218.878 9.87415C218.895 10.3554 218.791 10.8332 218.573 11.263C218.372 11.6523 218.07 11.9807 217.698 12.2143C217.321 12.4462 216.905 12.6104 216.471 12.6994C215.958 12.8089 215.435 12.8631 214.911 12.8611H206.54L206.73 11.0157Z" fill="#003841"/>
<path d="M206.978 11.3011L206.844 12.5377C206.844 12.7375 206.721 12.8326 206.54 12.8326C206.359 12.8326 206.274 12.7375 206.293 12.5377L206.435 11.3011C206.435 11.1108 206.549 11.0157 206.73 11.0157C206.911 11.0157 206.997 11.1108 206.978 11.3011ZM206.73 11.0157H215.425C215.964 11.0526 216.502 10.9442 216.985 10.7018C217.135 10.6196 217.26 10.4985 217.347 10.3512C217.434 10.2038 217.48 10.0358 217.48 9.86466C217.473 9.5997 217.39 9.34224 217.242 9.12267C217.025 8.80099 216.769 8.50707 216.481 8.24749C216.129 7.92406 215.672 7.53402 215.101 7.07742C214.531 6.62081 213.836 6.05956 212.999 5.41269C212.999 5.12731 212.999 4.83244 212.999 4.53754V3.64335L219.991 0L217.965 2.66354L213.817 4.78488L214.198 4.39486C215.054 5.02904 215.777 5.6093 216.367 6.13567C216.88 6.54806 217.363 6.99628 217.812 7.47696C218.149 7.82199 218.425 8.22063 218.631 8.65653C218.795 9.04148 218.879 9.45572 218.878 9.87415C218.895 10.3554 218.791 10.8332 218.573 11.263C218.372 11.6523 218.07 11.9807 217.698 12.2143C217.321 12.4462 216.905 12.6104 216.471 12.6994C215.958 12.8089 215.435 12.8631 214.911 12.8611H206.54L206.73 11.0157Z" fill="black" fill-opacity="0.2"/>
<path d="M15.4297 7.82906L19.6343 5.40332L39.2685 16.7329V39.4017L19.6343 28.0721L33.266 20.1956L29.0614 17.7698L15.4297 25.6463V7.82906Z" fill="#15C0E4"/>
<path d="M35.0638 41.837L15.4296 30.4979V41.3899L11.225 38.9642V10.2549L0 16.733V39.4018L19.6342 50.7409L35.0638 41.837Z" fill="#003841"/>
<path d="M35.0638 41.837L15.4296 30.4979V41.3899L11.225 38.9642V10.2549L0 16.733V39.4018L19.6342 50.7409L35.0638 41.837Z" fill="black" fill-opacity="0.2"/>
</g>
<defs>
<clipPath id="clip0_314_2">
<rect width="220" height="50.7407" fill="white"/>
</clipPath>
</defs>
</svg>
